<svg xmlns="http://www.w3.org/2000/svg" viewBox="0 0 24 24" fill="none" stroke="currentColor" stroke-width="2" stroke-linecap="round" stroke-linejoin="round">
  <path d="M16.5 13.5c-1.88 0-3.38-1.5-3.38-3.38s1.5-3.38 3.38-3.38 3.38 1.5 3.38 3.38-1.5 3.38-3.38 3.38zm-9 0c-1.88 0-3.38-1.5-3.38-3.38s1.5-3.38 3.38-3.38 3.38 1.5 3.38 3.38-1.5 3.38-3.38 3.38zm9 9c-1.88 0-3.38-1.5-3.38-3.38s1.5-3.38 3.38-3.38 3.38 1.5 3.38 3.38-1.5 3.38-3.38 3.38zm-9 0c-1.88 0-3.38-1.5-3.38-3.38s1.5-3.38 3.38-3.38 3.38 1.5 3.38 3.38-1.5 3.38-3.38 3.38z"/>
</svg>
